<svg xmlns="http://www.w3.org/2000/svg" xmlns:xlink="http://www.w3.org/1999/xlink" width="566" zoomAndPan="magnify" viewBox="0 0 425.25 283.500005" height="377" preserveAspectRatio="xMidYMid meet" version="1.0"><defs><g/><clipPath id="026f602dac"><path d="M 77.089844 98.796875 L 124.015625 98.796875 L 124.015625 149.753906 L 77.089844 149.753906 Z M 77.089844 98.796875 " clip-rule="nonzero"/></clipPath><clipPath id="1bbcb5e494"><path d="M 100 117.5 L 124.015625 117.5 L 124.015625 131 L 100 131 Z M 100 117.5 " clip-rule="nonzero"/></clipPath><clipPath id="a860baab73"><path d="M 116 117.5 L 124.015625 117.5 L 124.015625 143.894531 L 116 143.894531 Z M 116 117.5 " clip-rule="nonzero"/></clipPath></defs><g clip-path="url(#026f602dac)"><path fill="#ffffff" d="M 88.660156 124.273438 C 88.660156 114.90625 95.21875 108.511719 104.820312 108.511719 C 108.445312 108.511719 111.632812 109.433594 114.484375 111.386719 L 124.007812 106.316406 C 119.226562 101.394531 112.386719 98.796875 104.257812 98.796875 C 88.523438 98.796875 77.09375 109.421875 77.09375 124.273438 C 77.09375 139.125 88.523438 149.753906 104.257812 149.753906 C 110.222656 149.753906 115.484375 148.351562 119.746094 145.679688 L 114.472656 137.160156 C 111.625 139.113281 108.445312 140.035156 104.808594 140.035156 C 95.21875 140.035156 88.660156 133.640625 88.660156 124.273438 Z M 88.660156 124.273438 " fill-opacity="1" fill-rule="evenodd"/></g><g clip-path="url(#1bbcb5e494)"><path fill="#ffffff" d="M 116.054688 130.648438 L 124.007812 117.941406 L 100.027344 130.710938 L 113.570312 130.660156 Z M 116.054688 130.648438 " fill-opacity="1" fill-rule="evenodd"/></g><g clip-path="url(#a860baab73)"><path fill="#ffffff" d="M 124.007812 117.941406 L 116.054688 130.648438 L 124.007812 143.492188 Z M 124.007812 117.941406 " fill-opacity="1" fill-rule="evenodd"/></g><path fill="#ffffff" d="M 41.433594 160.152344 L 43.878906 160.152344 L 45.878906 166.300781 L 48.324219 160.152344 L 49.523438 160.152344 L 51.964844 166.300781 L 53.980469 160.152344 L 56.386719 160.152344 L 52.746094 170.820312 L 51.539062 170.820312 L 48.910156 164.09375 L 46.300781 170.820312 L 45.101562 170.820312 Z M 41.433594 160.152344 " fill-opacity="1" fill-rule="nonzero"/><path fill="#ffffff" d="M 64.035156 170.851562 C 63.265625 170.851562 62.550781 170.710938 61.894531 170.429688 C 61.238281 170.144531 60.664062 169.757812 60.175781 169.269531 C 59.691406 168.78125 59.3125 168.207031 59.039062 167.542969 C 58.765625 166.878906 58.625 166.160156 58.625 165.390625 C 58.625 164.617188 58.765625 163.898438 59.039062 163.230469 C 59.3125 162.5625 59.691406 161.984375 60.175781 161.496094 C 60.664062 161.007812 61.238281 160.625 61.894531 160.347656 C 62.550781 160.070312 63.265625 159.929688 64.035156 159.929688 C 64.796875 159.929688 65.507812 160.070312 66.171875 160.347656 C 66.832031 160.625 67.40625 161.007812 67.890625 161.496094 C 68.375 161.984375 68.753906 162.5625 69.027344 163.230469 C 69.308594 163.898438 69.449219 164.617188 69.449219 165.390625 C 69.449219 166.160156 69.308594 166.878906 69.027344 167.542969 C 68.753906 168.207031 68.375 168.78125 67.890625 169.269531 C 67.40625 169.757812 66.832031 170.144531 66.171875 170.429688 C 65.507812 170.710938 64.796875 170.851562 64.035156 170.851562 Z M 64.035156 168.628906 C 64.472656 168.628906 64.875 168.546875 65.242188 168.382812 C 65.605469 168.222656 65.921875 167.996094 66.1875 167.703125 C 66.449219 167.414062 66.660156 167.070312 66.8125 166.671875 C 66.964844 166.277344 67.042969 165.847656 67.042969 165.390625 C 67.042969 164.933594 66.964844 164.503906 66.8125 164.105469 C 66.660156 163.710938 66.449219 163.371094 66.1875 163.082031 C 65.921875 162.800781 65.605469 162.570312 65.242188 162.402344 C 64.875 162.234375 64.472656 162.152344 64.035156 162.152344 C 63.59375 162.152344 63.195312 162.234375 62.828125 162.402344 C 62.464844 162.570312 62.148438 162.800781 61.878906 163.082031 C 61.613281 163.371094 61.40625 163.710938 61.253906 164.105469 C 61.105469 164.503906 61.03125 164.933594 61.03125 165.390625 C 61.03125 165.847656 61.105469 166.277344 61.253906 166.671875 C 61.40625 167.070312 61.613281 167.414062 61.878906 167.695312 C 62.148438 167.984375 62.464844 168.207031 62.828125 168.375 C 63.195312 168.542969 63.59375 168.628906 64.035156 168.628906 Z M 64.035156 168.628906 " fill-opacity="1" fill-rule="nonzero"/><path fill="#ffffff" d="M 72.703125 160.152344 L 75.984375 160.152344 C 76.523438 160.152344 77.027344 160.234375 77.488281 160.402344 C 77.953125 160.566406 78.351562 160.800781 78.6875 161.105469 C 79.023438 161.40625 79.285156 161.765625 79.46875 162.183594 C 79.65625 162.601562 79.75 163.054688 79.75 163.542969 C 79.75 164.167969 79.597656 164.738281 79.292969 165.246094 C 78.992188 165.75 78.578125 166.140625 78.046875 166.421875 L 80.507812 170.628906 L 77.839844 170.628906 L 75.808594 166.957031 L 74.984375 166.957031 L 74.984375 170.628906 L 72.703125 170.628906 Z M 75.871094 164.941406 C 76.363281 164.941406 76.753906 164.816406 77.039062 164.574219 C 77.324219 164.324219 77.46875 163.984375 77.46875 163.558594 C 77.46875 163.128906 77.320312 162.8125 77.03125 162.601562 C 76.742188 162.394531 76.355469 162.289062 75.871094 162.289062 L 74.984375 162.289062 L 74.984375 164.941406 Z M 75.871094 164.941406 " fill-opacity="1" fill-rule="nonzero"/><path fill="#ffffff" d="M 83.445312 160.152344 L 85.730469 160.152344 L 85.730469 168.484375 L 89.355469 168.484375 L 89.355469 170.628906 L 83.445312 170.628906 Z M 83.445312 160.152344 " fill-opacity="1" fill-rule="nonzero"/><path fill="#ffffff" d="M 92.53125 160.152344 L 96.671875 160.152344 C 97.453125 160.152344 98.175781 160.285156 98.839844 160.546875 C 99.5 160.8125 100.074219 161.179688 100.558594 161.648438 C 101.039062 162.113281 101.421875 162.664062 101.695312 163.304688 C 101.972656 163.941406 102.117188 164.636719 102.117188 165.390625 C 102.117188 166.140625 101.972656 166.832031 101.695312 167.46875 C 101.421875 168.105469 101.039062 168.660156 100.558594 169.132812 C 100.074219 169.601562 99.5 169.96875 98.839844 170.230469 C 98.175781 170.496094 97.453125 170.628906 96.671875 170.628906 L 92.53125 170.628906 Z M 96.683594 168.484375 C 97.121094 168.484375 97.527344 168.40625 97.890625 168.253906 C 98.257812 168.097656 98.574219 167.878906 98.847656 167.605469 C 99.117188 167.328125 99.328125 167 99.480469 166.628906 C 99.632812 166.25 99.710938 165.839844 99.710938 165.390625 C 99.710938 164.945312 99.632812 164.53125 99.480469 164.152344 C 99.328125 163.777344 99.117188 163.449219 98.847656 163.175781 C 98.574219 162.902344 98.257812 162.683594 97.890625 162.527344 C 97.527344 162.371094 97.121094 162.289062 96.683594 162.289062 L 94.8125 162.289062 L 94.8125 168.484375 Z M 96.683594 168.484375 " fill-opacity="1" fill-rule="nonzero"/><path fill="#ffffff" d="M 115.152344 170.851562 C 114.375 170.851562 113.652344 170.714844 112.984375 170.445312 C 112.316406 170.171875 111.738281 169.792969 111.25 169.308594 C 110.765625 168.824219 110.390625 168.25 110.121094 167.582031 C 109.851562 166.914062 109.714844 166.191406 109.714844 165.40625 C 109.714844 164.621094 109.855469 163.898438 110.128906 163.230469 C 110.402344 162.5625 110.78125 161.984375 111.265625 161.496094 C 111.753906 161.007812 112.328125 160.625 112.992188 160.347656 C 113.652344 160.070312 114.371094 159.929688 115.140625 159.929688 C 115.953125 159.929688 116.707031 160.089844 117.40625 160.402344 C 118.109375 160.714844 118.714844 161.164062 119.226562 161.746094 L 117.628906 163.289062 C 117.328125 162.9375 116.972656 162.660156 116.558594 162.457031 C 116.148438 162.253906 115.695312 162.152344 115.207031 162.152344 C 114.753906 162.152344 114.339844 162.234375 113.960938 162.394531 C 113.589844 162.554688 113.265625 162.777344 112.984375 163.070312 C 112.710938 163.355469 112.496094 163.695312 112.34375 164.09375 C 112.195312 164.488281 112.121094 164.917969 112.121094 165.375 C 112.121094 165.84375 112.199219 166.277344 112.359375 166.671875 C 112.515625 167.070312 112.734375 167.414062 113.007812 167.703125 C 113.28125 167.996094 113.613281 168.222656 114 168.382812 C 114.386719 168.546875 114.808594 168.628906 115.269531 168.628906 C 115.765625 168.628906 116.226562 168.527344 116.644531 168.316406 C 117.058594 168.105469 117.414062 167.824219 117.703125 167.46875 L 119.300781 168.988281 C 118.800781 169.582031 118.199219 170.046875 117.492188 170.371094 C 116.789062 170.691406 116.007812 170.851562 115.152344 170.851562 Z M 115.152344 170.851562 " fill-opacity="1" fill-rule="nonzero"/><path fill="#ffffff" d="M 122.320312 160.152344 L 124.605469 160.152344 L 124.605469 168.484375 L 128.234375 168.484375 L 128.234375 170.628906 L 122.320312 170.628906 Z M 122.320312 160.152344 " fill-opacity="1" fill-rule="nonzero"/><path fill="#ffffff" d="M 134.515625 159.960938 L 135.972656 159.960938 L 140.097656 170.628906 L 137.691406 170.628906 L 137.050781 168.867188 L 133.4375 168.867188 L 132.8125 170.628906 L 130.382812 170.628906 Z M 136.347656 166.894531 L 135.25 163.808594 L 134.140625 166.894531 Z M 136.347656 166.894531 " fill-opacity="1" fill-rule="nonzero"/><path fill="#ffffff" d="M 145.773438 170.910156 C 144.957031 170.910156 144.226562 170.730469 143.582031 170.371094 C 142.941406 170.003906 142.421875 169.472656 142.023438 168.78125 L 143.621094 167.453125 C 144.160156 168.425781 144.871094 168.910156 145.757812 168.910156 C 146.15625 168.910156 146.476562 168.816406 146.722656 168.621094 C 146.964844 168.429688 147.085938 168.175781 147.085938 167.863281 C 147.085938 167.570312 146.96875 167.316406 146.730469 167.101562 C 146.488281 166.886719 146.058594 166.648438 145.429688 166.375 C 144.460938 165.949219 143.757812 165.472656 143.316406 164.949219 C 142.871094 164.417969 142.652344 163.789062 142.652344 163.0625 C 142.652344 162.601562 142.730469 162.179688 142.894531 161.792969 C 143.0625 161.40625 143.296875 161.074219 143.597656 160.800781 C 143.902344 160.523438 144.265625 160.3125 144.683594 160.160156 C 145.097656 160.007812 145.554688 159.929688 146.058594 159.929688 C 147.378906 159.929688 148.5 160.5 149.417969 161.632812 L 147.90625 163.015625 C 147.609375 162.628906 147.316406 162.34375 147.027344 162.160156 C 146.738281 161.976562 146.410156 161.882812 146.058594 161.882812 C 145.714844 161.882812 145.441406 161.972656 145.238281 162.144531 C 145.035156 162.316406 144.933594 162.550781 144.933594 162.839844 C 144.933594 163.164062 145.066406 163.433594 145.339844 163.640625 C 145.609375 163.851562 146.015625 164.074219 146.5625 164.3125 C 147.546875 164.753906 148.265625 165.242188 148.707031 165.78125 C 149.148438 166.3125 149.371094 166.945312 149.371094 167.675781 C 149.371094 168.152344 149.28125 168.589844 149.105469 168.988281 C 148.929688 169.382812 148.6875 169.726562 148.371094 170.011719 C 148.058594 170.296875 147.683594 170.519531 147.242188 170.675781 C 146.796875 170.832031 146.308594 170.910156 145.773438 170.910156 Z M 145.773438 170.910156 " fill-opacity="1" fill-rule="nonzero"/><path fill="#ffffff" d="M 155.484375 170.910156 C 154.671875 170.910156 153.9375 170.730469 153.292969 170.371094 C 152.652344 170.003906 152.132812 169.472656 151.734375 168.78125 L 153.332031 167.453125 C 153.871094 168.425781 154.585938 168.910156 155.472656 168.910156 C 155.867188 168.910156 156.1875 168.816406 156.433594 168.621094 C 156.675781 168.429688 156.800781 168.175781 156.800781 167.863281 C 156.800781 167.570312 156.679688 167.316406 156.441406 167.101562 C 156.199219 166.886719 155.769531 166.648438 155.140625 166.375 C 154.175781 165.949219 153.46875 165.472656 153.027344 164.949219 C 152.582031 164.417969 152.363281 163.789062 152.363281 163.0625 C 152.363281 162.601562 152.441406 162.179688 152.605469 161.792969 C 152.773438 161.40625 153.007812 161.074219 153.308594 160.800781 C 153.613281 160.523438 153.976562 160.3125 154.394531 160.160156 C 154.808594 160.007812 155.269531 159.929688 155.769531 159.929688 C 157.089844 159.929688 158.210938 160.5 159.128906 161.632812 L 157.617188 163.015625 C 157.320312 162.628906 157.027344 162.34375 156.738281 162.160156 C 156.449219 161.976562 156.125 161.882812 155.769531 161.882812 C 155.425781 161.882812 155.152344 161.972656 154.953125 162.144531 C 154.746094 162.316406 154.644531 162.550781 154.644531 162.839844 C 154.644531 163.164062 154.78125 163.433594 155.050781 163.640625 C 155.320312 163.851562 155.726562 164.074219 156.273438 164.3125 C 157.261719 164.753906 157.976562 165.242188 158.417969 165.78125 C 158.863281 166.3125 159.082031 166.945312 159.082031 167.675781 C 159.082031 168.152344 158.992188 168.589844 158.816406 168.988281 C 158.640625 169.382812 158.398438 169.726562 158.082031 170.011719 C 157.773438 170.296875 157.394531 170.519531 156.953125 170.675781 C 156.507812 170.832031 156.019531 170.910156 155.484375 170.910156 Z M 155.484375 170.910156 " fill-opacity="1" fill-rule="nonzero"/><path fill="#ffffff" d="M 73.65625 180.191406 L 75.023438 176.476562 L 75.496094 176.476562 L 76.855469 180.191406 L 76.382812 180.191406 L 76.046875 179.234375 L 74.464844 179.234375 L 74.121094 180.191406 Z M 74.59375 178.875 L 75.910156 178.875 L 75.25 177.042969 Z M 74.59375 178.875 " fill-opacity="1" fill-rule="nonzero"/><path fill="#ffffff" d="M 81.644531 180.191406 L 81.644531 176.476562 L 82.09375 176.476562 L 82.09375 179.839844 L 83.820312 179.839844 L 83.820312 180.191406 Z M 81.644531 180.191406 " fill-opacity="1" fill-rule="nonzero"/><path fill="#ffffff" d="M 88.667969 180.191406 L 88.667969 176.476562 L 89.117188 176.476562 L 89.117188 179.839844 L 90.84375 179.839844 L 90.84375 180.191406 Z M 88.667969 180.191406 " fill-opacity="1" fill-rule="nonzero"/><path fill="#ffffff" d="M 95.691406 176.476562 L 96.140625 176.476562 L 96.140625 180.191406 L 95.691406 180.191406 Z M 95.691406 176.476562 " fill-opacity="1" fill-rule="nonzero"/><path fill="#ffffff" d="M 100.929688 180.191406 L 102.296875 176.476562 L 102.773438 176.476562 L 104.132812 180.191406 L 103.65625 180.191406 L 103.320312 179.234375 L 101.742188 179.234375 L 101.398438 180.191406 Z M 101.871094 178.875 L 103.183594 178.875 L 102.527344 177.042969 Z M 101.871094 178.875 " fill-opacity="1" fill-rule="nonzero"/><path fill="#ffffff" d="M 108.917969 180.191406 L 108.917969 176.476562 L 109.371094 176.476562 L 111.347656 179.457031 L 111.347656 176.476562 L 111.792969 176.476562 L 111.792969 180.191406 L 111.347656 180.191406 L 109.371094 177.21875 L 109.371094 180.191406 Z M 108.917969 180.191406 " fill-opacity="1" fill-rule="nonzero"/><path fill="#ffffff" d="M 118.4375 180.25 C 118.074219 180.25 117.761719 180.171875 117.5 180.015625 C 117.238281 179.851562 117.035156 179.628906 116.886719 179.34375 C 116.742188 179.050781 116.671875 178.714844 116.671875 178.332031 C 116.671875 177.957031 116.742188 177.628906 116.886719 177.339844 C 117.035156 177.050781 117.238281 176.824219 117.5 176.660156 C 117.761719 176.5 118.074219 176.417969 118.4375 176.417969 C 118.867188 176.417969 119.210938 176.519531 119.476562 176.722656 C 119.738281 176.925781 119.910156 177.210938 119.988281 177.570312 L 119.5 177.570312 C 119.4375 177.339844 119.320312 177.15625 119.148438 177.019531 C 118.972656 176.878906 118.738281 176.804688 118.4375 176.804688 C 118.171875 176.804688 117.941406 176.867188 117.742188 176.988281 C 117.546875 177.113281 117.394531 177.289062 117.285156 177.515625 C 117.175781 177.746094 117.125 178.019531 117.125 178.332031 C 117.125 178.65625 117.175781 178.929688 117.285156 179.160156 C 117.394531 179.382812 117.546875 179.554688 117.742188 179.679688 C 117.941406 179.800781 118.171875 179.863281 118.4375 179.863281 C 118.738281 179.863281 118.972656 179.796875 119.148438 179.664062 C 119.320312 179.523438 119.4375 179.34375 119.5 179.113281 L 119.988281 179.113281 C 119.910156 179.46875 119.738281 179.75 119.476562 179.953125 C 119.210938 180.152344 118.867188 180.25 118.4375 180.25 Z M 118.4375 180.25 " fill-opacity="1" fill-rule="nonzero"/><path fill="#ffffff" d="M 124.867188 180.191406 L 124.867188 176.476562 L 127.167969 176.476562 L 127.167969 176.84375 L 125.316406 176.84375 L 125.316406 178.136719 L 127.003906 178.136719 L 127.003906 178.503906 L 125.316406 178.503906 L 125.316406 179.824219 L 127.167969 179.824219 L 127.167969 180.191406 Z M 124.867188 180.191406 " fill-opacity="1" fill-rule="nonzero"/><path stroke-linecap="butt" transform="matrix(0.00000000130669, 0.74868, -0.74868, 0.00000000130669, 183.678802, 95.201241)" fill="none" stroke-linejoin="miter" d="M 0.00251629 0.499699 L 116.040146 0.4997 " stroke="#ffffff" stroke-width="1" stroke-opacity="1" stroke-miterlimit="4"/><g fill="#ffffff" fill-opacity="1"><g transform="translate(202.398364, 136.242004)"><g><path d="M 6.1875 0 L 3.546875 0 L 3.546875 -9 L 0.328125 -9 L 0.328125 -11.546875 L 9.40625 -11.546875 L 9.40625 -9 L 6.1875 -9 Z M 6.1875 0 "/></g></g></g><g fill="#ffffff" fill-opacity="1"><g transform="translate(213.268716, 136.242004)"><g><path d="M 9.078125 0 L 1.15625 0 L 1.15625 -11.546875 L 9.078125 -11.546875 L 9.078125 -9.15625 L 3.796875 -9.15625 L 3.796875 -6.9375 L 8.75 -6.9375 L 8.75 -4.625 L 3.796875 -4.625 L 3.796875 -2.390625 L 9.078125 -2.390625 Z M 9.078125 0 "/></g></g></g><g fill="#ffffff" fill-opacity="1"><g transform="translate(224.304006, 136.242004)"><g><path d="M 6.265625 0.171875 C 5.234375 0.171875 4.285156 -0.0820312 3.421875 -0.59375 C 2.566406 -1.113281 1.890625 -1.820312 1.390625 -2.71875 C 0.898438 -3.625 0.65625 -4.644531 0.65625 -5.78125 C 0.65625 -6.90625 0.898438 -7.921875 1.390625 -8.828125 C 1.890625 -9.734375 2.566406 -10.441406 3.421875 -10.953125 C 4.285156 -11.460938 5.234375 -11.71875 6.265625 -11.71875 C 7.273438 -11.71875 8.15625 -11.488281 8.90625 -11.03125 C 9.664062 -10.582031 10.265625 -10.015625 10.703125 -9.328125 C 11.140625 -8.648438 11.421875 -7.960938 11.546875 -7.265625 L 8.90625 -7.265625 C 8.78125 -7.742188 8.488281 -8.175781 8.03125 -8.5625 C 7.570312 -8.957031 6.984375 -9.15625 6.265625 -9.15625 C 5.710938 -9.15625 5.210938 -9.015625 4.765625 -8.734375 C 4.316406 -8.453125 3.957031 -8.054688 3.6875 -7.546875 C 3.425781 -7.035156 3.296875 -6.445312 3.296875 -5.78125 C 3.296875 -5.101562 3.425781 -4.507812 3.6875 -4 C 3.957031 -3.488281 4.316406 -3.09375 4.765625 -2.8125 C 5.210938 -2.53125 5.710938 -2.390625 6.265625 -2.390625 C 7.015625 -2.390625 7.613281 -2.59375 8.0625 -3 C 8.519531 -3.40625 8.800781 -3.863281 8.90625 -4.375 L 11.546875 -4.375 C 11.441406 -3.65625 11.171875 -2.945312 10.734375 -2.25 C 10.304688 -1.5625 9.710938 -0.984375 8.953125 -0.515625 C 8.203125 -0.0546875 7.304688 0.171875 6.265625 0.171875 Z M 6.265625 0.171875 "/></g></g></g><g fill="#ffffff" fill-opacity="1"><g transform="translate(237.483573, 136.242004)"><g><path d="M 3.796875 0 L 1.15625 0 L 1.15625 -11.546875 L 3.796875 -11.546875 L 3.796875 -7.171875 L 8.25 -7.171875 L 8.25 -11.546875 L 10.890625 -11.546875 L 10.890625 0 L 8.25 0 L 8.25 -4.453125 L 3.796875 -4.453125 Z M 3.796875 0 "/></g></g></g><g fill="#ffffff" fill-opacity="1"><g transform="translate(250.663136, 136.242004)"><g><path d="M 3.796875 0 L 1.15625 0 L 1.15625 -11.546875 L 4.375 -11.546875 L 8 -4.625 L 8.328125 -4.625 L 8.328125 -11.546875 L 10.96875 -11.546875 L 10.96875 0 L 7.75 0 L 4.125 -6.9375 L 3.796875 -6.9375 Z M 3.796875 0 "/></g></g></g><g fill="#ffffff" fill-opacity="1"><g transform="translate(263.925169, 136.242004)"><g><path d="M 6.265625 0.171875 C 5.234375 0.171875 4.285156 -0.0820312 3.421875 -0.59375 C 2.566406 -1.113281 1.890625 -1.820312 1.390625 -2.71875 C 0.898438 -3.625 0.65625 -4.644531 0.65625 -5.78125 C 0.65625 -6.90625 0.898438 -7.921875 1.390625 -8.828125 C 1.890625 -9.734375 2.566406 -10.441406 3.421875 -10.953125 C 4.285156 -11.460938 5.234375 -11.71875 6.265625 -11.71875 C 7.304688 -11.71875 8.253906 -11.460938 9.109375 -10.953125 C 9.960938 -10.441406 10.632812 -9.734375 11.125 -8.828125 C 11.625 -7.921875 11.875 -6.90625 11.875 -5.78125 C 11.875 -4.644531 11.625 -3.625 11.125 -2.71875 C 10.632812 -1.820312 9.960938 -1.113281 9.109375 -0.59375 C 8.253906 -0.0820312 7.304688 0.171875 6.265625 0.171875 Z M 6.265625 -2.390625 C 6.816406 -2.390625 7.316406 -2.53125 7.765625 -2.8125 C 8.222656 -3.09375 8.582031 -3.488281 8.84375 -4 C 9.101562 -4.507812 9.234375 -5.101562 9.234375 -5.78125 C 9.234375 -6.445312 9.101562 -7.035156 8.84375 -7.546875 C 8.582031 -8.054688 8.222656 -8.453125 7.765625 -8.734375 C 7.316406 -9.015625 6.816406 -9.15625 6.265625 -9.15625 C 5.710938 -9.15625 5.210938 -9.015625 4.765625 -8.734375 C 4.316406 -8.453125 3.957031 -8.054688 3.6875 -7.546875 C 3.425781 -7.035156 3.296875 -6.445312 3.296875 -5.78125 C 3.296875 -5.101562 3.425781 -4.507812 3.6875 -4 C 3.957031 -3.488281 4.316406 -3.09375 4.765625 -2.8125 C 5.210938 -2.53125 5.710938 -2.390625 6.265625 -2.390625 Z M 6.265625 -2.390625 "/></g></g></g><g fill="#ffffff" fill-opacity="1"><g transform="translate(277.599561, 136.242004)"><g><path d="M 9 0 L 1.15625 0 L 1.15625 -11.546875 L 3.796875 -11.546875 L 3.796875 -2.5625 L 9 -2.5625 Z M 9 0 "/></g></g></g><g fill="#ffffff" fill-opacity="1"><g transform="translate(287.975083, 136.242004)"><g><path d="M 6.265625 0.171875 C 5.234375 0.171875 4.285156 -0.0820312 3.421875 -0.59375 C 2.566406 -1.113281 1.890625 -1.820312 1.390625 -2.71875 C 0.898438 -3.625 0.65625 -4.644531 0.65625 -5.78125 C 0.65625 -6.90625 0.898438 -7.921875 1.390625 -8.828125 C 1.890625 -9.734375 2.566406 -10.441406 3.421875 -10.953125 C 4.285156 -11.460938 5.234375 -11.71875 6.265625 -11.71875 C 7.304688 -11.71875 8.253906 -11.460938 9.109375 -10.953125 C 9.960938 -10.441406 10.632812 -9.734375 11.125 -8.828125 C 11.625 -7.921875 11.875 -6.90625 11.875 -5.78125 C 11.875 -4.644531 11.625 -3.625 11.125 -2.71875 C 10.632812 -1.820312 9.960938 -1.113281 9.109375 -0.59375 C 8.253906 -0.0820312 7.304688 0.171875 6.265625 0.171875 Z M 6.265625 -2.390625 C 6.816406 -2.390625 7.316406 -2.53125 7.765625 -2.8125 C 8.222656 -3.09375 8.582031 -3.488281 8.84375 -4 C 9.101562 -4.507812 9.234375 -5.101562 9.234375 -5.78125 C 9.234375 -6.445312 9.101562 -7.035156 8.84375 -7.546875 C 8.582031 -8.054688 8.222656 -8.453125 7.765625 -8.734375 C 7.316406 -9.015625 6.816406 -9.15625 6.265625 -9.15625 C 5.710938 -9.15625 5.210938 -9.015625 4.765625 -8.734375 C 4.316406 -8.453125 3.957031 -8.054688 3.6875 -7.546875 C 3.425781 -7.035156 3.296875 -6.445312 3.296875 -5.78125 C 3.296875 -5.101562 3.425781 -4.507812 3.6875 -4 C 3.957031 -3.488281 4.316406 -3.09375 4.765625 -2.8125 C 5.210938 -2.53125 5.710938 -2.390625 6.265625 -2.390625 Z M 6.265625 -2.390625 "/></g></g></g><g fill="#ffffff" fill-opacity="1"><g transform="translate(301.649481, 136.242004)"><g><path d="M 6.546875 -6.109375 L 11.625 -6.109375 L 11.625 0 L 9.65625 0 L 9.484375 -1.15625 L 9.40625 -1.15625 C 9.09375 -0.78125 8.664062 -0.460938 8.125 -0.203125 C 7.59375 0.046875 6.984375 0.171875 6.296875 0.171875 C 5.253906 0.171875 4.300781 -0.0820312 3.4375 -0.59375 C 2.570312 -1.113281 1.890625 -1.820312 1.390625 -2.71875 C 0.898438 -3.625 0.65625 -4.644531 0.65625 -5.78125 C 0.65625 -6.90625 0.90625 -7.921875 1.40625 -8.828125 C 1.90625 -9.742188 2.585938 -10.453125 3.453125 -10.953125 C 4.316406 -11.460938 5.265625 -11.71875 6.296875 -11.71875 C 7.265625 -11.71875 8.117188 -11.507812 8.859375 -11.09375 C 9.597656 -10.6875 10.1875 -10.164062 10.625 -9.53125 C 11.0625 -8.894531 11.363281 -8.25 11.53125 -7.59375 L 8.828125 -7.59375 C 8.628906 -8.03125 8.300781 -8.398438 7.84375 -8.703125 C 7.394531 -9.003906 6.878906 -9.15625 6.296875 -9.15625 C 5.722656 -9.15625 5.210938 -9.015625 4.765625 -8.734375 C 4.316406 -8.460938 3.957031 -8.070312 3.6875 -7.5625 C 3.425781 -7.050781 3.296875 -6.457031 3.296875 -5.78125 C 3.296875 -5.09375 3.425781 -4.492188 3.6875 -3.984375 C 3.957031 -3.472656 4.316406 -3.078125 4.765625 -2.796875 C 5.210938 -2.523438 5.722656 -2.390625 6.296875 -2.390625 C 6.828125 -2.390625 7.285156 -2.488281 7.671875 -2.6875 C 8.054688 -2.882812 8.351562 -3.125 8.5625 -3.40625 C 8.78125 -3.695312 8.914062 -3.976562 8.96875 -4.25 L 8.96875 -4.296875 L 6.546875 -4.296875 Z M 6.546875 -6.109375 "/></g></g></g><g fill="#ffffff" fill-opacity="1"><g transform="translate(315.323873, 136.242004)"><g><path d="M 6.59375 0 L 3.953125 0 L 3.953125 -3.71875 L -0.25 -11.546875 L 2.71875 -11.546875 L 5.109375 -6.9375 L 5.4375 -6.9375 L 7.84375 -11.546875 L 10.8125 -11.546875 L 6.59375 -3.71875 Z M 6.59375 0 "/></g></g></g><g fill="#ffffff" fill-opacity="1"><g transform="translate(202.398364, 158.702391)"><g><path d="M 1.15625 0 L 1.15625 -11.546875 L 6.5 -11.546875 C 7.25 -11.546875 7.910156 -11.378906 8.484375 -11.046875 C 9.066406 -10.722656 9.515625 -10.253906 9.828125 -9.640625 C 10.148438 -9.035156 10.3125 -8.332031 10.3125 -7.53125 C 10.3125 -6.707031 10.148438 -5.988281 9.828125 -5.375 C 9.515625 -4.757812 9.066406 -4.285156 8.484375 -3.953125 C 7.910156 -3.628906 7.25 -3.46875 6.5 -3.46875 L 3.796875 -3.46875 L 3.796875 0 Z M 6.359375 -6.015625 C 6.742188 -6.015625 7.054688 -6.148438 7.296875 -6.421875 C 7.546875 -6.691406 7.671875 -7.050781 7.671875 -7.5 C 7.671875 -7.957031 7.546875 -8.320312 7.296875 -8.59375 C 7.054688 -8.863281 6.742188 -9 6.359375 -9 L 3.796875 -9 L 3.796875 -6.015625 Z M 6.359375 -6.015625 "/></g></g></g><g fill="#ffffff" fill-opacity="1"><g transform="translate(214.423322, 158.702391)"><g><path d="M 11.625 0 L 8.75 0 L 8 -2.3125 L 3.546875 -2.3125 L 2.8125 0 L -0.078125 0 L 3.875 -11.546875 L 7.671875 -11.546875 Z M 5.609375 -8.75 L 4.296875 -4.625 L 7.265625 -4.625 L 5.9375 -8.75 Z M 5.609375 -8.75 "/></g></g></g><g fill="#ffffff" fill-opacity="1"><g transform="translate(227.108059, 158.702391)"><g><path d="M 10.71875 0 L 7.4375 0 L 4.203125 -3.71875 L 3.796875 -3.71875 L 3.796875 0 L 1.15625 0 L 1.15625 -11.546875 L 6.609375 -11.546875 C 7.347656 -11.546875 8.003906 -11.378906 8.578125 -11.046875 C 9.148438 -10.710938 9.59375 -10.242188 9.90625 -9.640625 C 10.226562 -9.046875 10.390625 -8.351562 10.390625 -7.5625 C 10.390625 -6.875 10.25 -6.242188 9.96875 -5.671875 C 9.6875 -5.109375 9.3125 -4.660156 8.84375 -4.328125 C 8.375 -3.992188 7.859375 -3.8125 7.296875 -3.78125 Z M 3.796875 -6.109375 L 6.46875 -6.109375 C 6.832031 -6.109375 7.132812 -6.25 7.375 -6.53125 C 7.625 -6.8125 7.75 -7.164062 7.75 -7.59375 C 7.75 -8.019531 7.625 -8.375 7.375 -8.65625 C 7.132812 -8.9375 6.832031 -9.078125 6.46875 -9.078125 L 3.796875 -9.078125 Z M 3.796875 -6.109375 "/></g></g></g><g fill="#ffffff" fill-opacity="1"><g transform="translate(239.462908, 158.702391)"><g><path d="M 6.1875 0 L 3.546875 0 L 3.546875 -9 L 0.328125 -9 L 0.328125 -11.546875 L 9.40625 -11.546875 L 9.40625 -9 L 6.1875 -9 Z M 6.1875 0 "/></g></g></g><g fill="#ffffff" fill-opacity="1"><g transform="translate(250.333259, 158.702391)"><g><path d="M 3.796875 0 L 1.15625 0 L 1.15625 -11.546875 L 4.375 -11.546875 L 8 -4.625 L 8.328125 -4.625 L 8.328125 -11.546875 L 10.96875 -11.546875 L 10.96875 0 L 7.75 0 L 4.125 -6.9375 L 3.796875 -6.9375 Z M 3.796875 0 "/></g></g></g><g fill="#ffffff" fill-opacity="1"><g transform="translate(263.595292, 158.702391)"><g><path d="M 9.078125 0 L 1.15625 0 L 1.15625 -11.546875 L 9.078125 -11.546875 L 9.078125 -9.15625 L 3.796875 -9.15625 L 3.796875 -6.9375 L 8.75 -6.9375 L 8.75 -4.625 L 3.796875 -4.625 L 3.796875 -2.390625 L 9.078125 -2.390625 Z M 9.078125 0 "/></g></g></g><g fill="#ffffff" fill-opacity="1"><g transform="translate(274.630581, 158.702391)"><g><path d="M 10.71875 0 L 7.4375 0 L 4.203125 -3.71875 L 3.796875 -3.71875 L 3.796875 0 L 1.15625 0 L 1.15625 -11.546875 L 6.609375 -11.546875 C 7.347656 -11.546875 8.003906 -11.378906 8.578125 -11.046875 C 9.148438 -10.710938 9.59375 -10.242188 9.90625 -9.640625 C 10.226562 -9.046875 10.390625 -8.351562 10.390625 -7.5625 C 10.390625 -6.875 10.25 -6.242188 9.96875 -5.671875 C 9.6875 -5.109375 9.3125 -4.660156 8.84375 -4.328125 C 8.375 -3.992188 7.859375 -3.8125 7.296875 -3.78125 Z M 3.796875 -6.109375 L 6.46875 -6.109375 C 6.832031 -6.109375 7.132812 -6.25 7.375 -6.53125 C 7.625 -6.8125 7.75 -7.164062 7.75 -7.59375 C 7.75 -8.019531 7.625 -8.375 7.375 -8.65625 C 7.132812 -8.9375 6.832031 -9.078125 6.46875 -9.078125 L 3.796875 -9.078125 Z M 3.796875 -6.109375 "/></g></g></g><g fill="#ffffff" fill-opacity="1"><g transform="translate(286.985427, 158.702391)"><g/></g></g><g fill="#ffffff" fill-opacity="1"><g transform="translate(292.577573, 158.702391)"><g><path d="M 6.265625 0.171875 C 5.234375 0.171875 4.285156 -0.0820312 3.421875 -0.59375 C 2.566406 -1.113281 1.890625 -1.820312 1.390625 -2.71875 C 0.898438 -3.625 0.65625 -4.644531 0.65625 -5.78125 C 0.65625 -6.90625 0.898438 -7.921875 1.390625 -8.828125 C 1.890625 -9.734375 2.566406 -10.441406 3.421875 -10.953125 C 4.285156 -11.460938 5.234375 -11.71875 6.265625 -11.71875 C 7.304688 -11.71875 8.253906 -11.460938 9.109375 -10.953125 C 9.960938 -10.441406 10.632812 -9.734375 11.125 -8.828125 C 11.625 -7.921875 11.875 -6.90625 11.875 -5.78125 C 11.875 -4.644531 11.625 -3.625 11.125 -2.71875 C 10.632812 -1.820312 9.960938 -1.113281 9.109375 -0.59375 C 8.253906 -0.0820312 7.304688 0.171875 6.265625 0.171875 Z M 6.265625 -2.390625 C 6.816406 -2.390625 7.316406 -2.53125 7.765625 -2.8125 C 8.222656 -3.09375 8.582031 -3.488281 8.84375 -4 C 9.101562 -4.507812 9.234375 -5.101562 9.234375 -5.78125 C 9.234375 -6.445312 9.101562 -7.035156 8.84375 -7.546875 C 8.582031 -8.054688 8.222656 -8.453125 7.765625 -8.734375 C 7.316406 -9.015625 6.816406 -9.15625 6.265625 -9.15625 C 5.710938 -9.15625 5.210938 -9.015625 4.765625 -8.734375 C 4.316406 -8.453125 3.957031 -8.054688 3.6875 -7.546875 C 3.425781 -7.035156 3.296875 -6.445312 3.296875 -5.78125 C 3.296875 -5.101562 3.425781 -4.507812 3.6875 -4 C 3.957031 -3.488281 4.316406 -3.09375 4.765625 -2.8125 C 5.210938 -2.53125 5.710938 -2.390625 6.265625 -2.390625 Z M 6.265625 -2.390625 "/></g></g></g><g fill="#ffffff" fill-opacity="1"><g transform="translate(306.251971, 158.702391)"><g><path d="M 3.796875 0 L 1.15625 0 L 1.15625 -11.546875 L 9 -11.546875 L 9 -9.15625 L 3.796875 -9.15625 L 3.796875 -6.84375 L 8.578125 -6.84375 L 8.578125 -4.53125 L 3.796875 -4.53125 Z M 3.796875 0 "/></g></g></g><g fill="#ffffff" fill-opacity="1"><g transform="translate(317.039851, 158.702391)"><g/></g></g><g fill="#ffffff" fill-opacity="1"><g transform="translate(322.631997, 158.702391)"><g><path d="M 6.265625 0.171875 C 5.234375 0.171875 4.285156 -0.0820312 3.421875 -0.59375 C 2.566406 -1.113281 1.890625 -1.820312 1.390625 -2.71875 C 0.898438 -3.625 0.65625 -4.644531 0.65625 -5.78125 C 0.65625 -6.90625 0.898438 -7.921875 1.390625 -8.828125 C 1.890625 -9.734375 2.566406 -10.441406 3.421875 -10.953125 C 4.285156 -11.460938 5.234375 -11.71875 6.265625 -11.71875 C 7.273438 -11.71875 8.15625 -11.488281 8.90625 -11.03125 C 9.664062 -10.582031 10.265625 -10.015625 10.703125 -9.328125 C 11.140625 -8.648438 11.421875 -7.960938 11.546875 -7.265625 L 8.90625 -7.265625 C 8.78125 -7.742188 8.488281 -8.175781 8.03125 -8.5625 C 7.570312 -8.957031 6.984375 -9.15625 6.265625 -9.15625 C 5.710938 -9.15625 5.210938 -9.015625 4.765625 -8.734375 C 4.316406 -8.453125 3.957031 -8.054688 3.6875 -7.546875 C 3.425781 -7.035156 3.296875 -6.445312 3.296875 -5.78125 C 3.296875 -5.101562 3.425781 -4.507812 3.6875 -4 C 3.957031 -3.488281 4.316406 -3.09375 4.765625 -2.8125 C 5.210938 -2.53125 5.710938 -2.390625 6.265625 -2.390625 C 7.015625 -2.390625 7.613281 -2.59375 8.0625 -3 C 8.519531 -3.40625 8.800781 -3.863281 8.90625 -4.375 L 11.546875 -4.375 C 11.441406 -3.65625 11.171875 -2.945312 10.734375 -2.25 C 10.304688 -1.5625 9.710938 -0.984375 8.953125 -0.515625 C 8.203125 -0.0546875 7.304688 0.171875 6.265625 0.171875 Z M 6.265625 0.171875 "/></g></g></g><g fill="#ffffff" fill-opacity="1"><g transform="translate(335.811561, 158.702391)"><g><path d="M 3.796875 0 L 1.15625 0 L 1.15625 -11.546875 L 3.796875 -11.546875 L 3.796875 -7.171875 L 8.25 -7.171875 L 8.25 -11.546875 L 10.890625 -11.546875 L 10.890625 0 L 8.25 0 L 8.25 -4.453125 L 3.796875 -4.453125 Z M 3.796875 0 "/></g></g></g><g fill="#ffffff" fill-opacity="1"><g transform="translate(348.991125, 158.702391)"><g><path d="M 6.265625 0.171875 C 5.234375 0.171875 4.285156 -0.0820312 3.421875 -0.59375 C 2.566406 -1.113281 1.890625 -1.820312 1.390625 -2.71875 C 0.898438 -3.625 0.65625 -4.644531 0.65625 -5.78125 C 0.65625 -6.90625 0.898438 -7.921875 1.390625 -8.828125 C 1.890625 -9.734375 2.566406 -10.441406 3.421875 -10.953125 C 4.285156 -11.460938 5.234375 -11.71875 6.265625 -11.71875 C 7.304688 -11.71875 8.253906 -11.460938 9.109375 -10.953125 C 9.960938 -10.441406 10.632812 -9.734375 11.125 -8.828125 C 11.625 -7.921875 11.875 -6.90625 11.875 -5.78125 C 11.875 -4.644531 11.625 -3.625 11.125 -2.71875 C 10.632812 -1.820312 9.960938 -1.113281 9.109375 -0.59375 C 8.253906 -0.0820312 7.304688 0.171875 6.265625 0.171875 Z M 6.265625 -2.390625 C 6.816406 -2.390625 7.316406 -2.53125 7.765625 -2.8125 C 8.222656 -3.09375 8.582031 -3.488281 8.84375 -4 C 9.101562 -4.507812 9.234375 -5.101562 9.234375 -5.78125 C 9.234375 -6.445312 9.101562 -7.035156 8.84375 -7.546875 C 8.582031 -8.054688 8.222656 -8.453125 7.765625 -8.734375 C 7.316406 -9.015625 6.816406 -9.15625 6.265625 -9.15625 C 5.710938 -9.15625 5.210938 -9.015625 4.765625 -8.734375 C 4.316406 -8.453125 3.957031 -8.054688 3.6875 -7.546875 C 3.425781 -7.035156 3.296875 -6.445312 3.296875 -5.78125 C 3.296875 -5.101562 3.425781 -4.507812 3.6875 -4 C 3.957031 -3.488281 4.316406 -3.09375 4.765625 -2.8125 C 5.210938 -2.53125 5.710938 -2.390625 6.265625 -2.390625 Z M 6.265625 -2.390625 "/></g></g></g><g fill="#ffffff" fill-opacity="1"><g transform="translate(362.665517, 158.702391)"><g><path d="M 3.796875 0 L 1.15625 0 L 1.15625 -11.546875 L 3.796875 -11.546875 Z M 3.796875 0 "/></g></g></g><g fill="#ffffff" fill-opacity="1"><g transform="translate(368.752491, 158.702391)"><g><path d="M 6.265625 0.171875 C 5.234375 0.171875 4.285156 -0.0820312 3.421875 -0.59375 C 2.566406 -1.113281 1.890625 -1.820312 1.390625 -2.71875 C 0.898438 -3.625 0.65625 -4.644531 0.65625 -5.78125 C 0.65625 -6.90625 0.898438 -7.921875 1.390625 -8.828125 C 1.890625 -9.734375 2.566406 -10.441406 3.421875 -10.953125 C 4.285156 -11.460938 5.234375 -11.71875 6.265625 -11.71875 C 7.273438 -11.71875 8.15625 -11.488281 8.90625 -11.03125 C 9.664062 -10.582031 10.265625 -10.015625 10.703125 -9.328125 C 11.140625 -8.648438 11.421875 -7.960938 11.546875 -7.265625 L 8.90625 -7.265625 C 8.78125 -7.742188 8.488281 -8.175781 8.03125 -8.5625 C 7.570312 -8.957031 6.984375 -9.15625 6.265625 -9.15625 C 5.710938 -9.15625 5.210938 -9.015625 4.765625 -8.734375 C 4.316406 -8.453125 3.957031 -8.054688 3.6875 -7.546875 C 3.425781 -7.035156 3.296875 -6.445312 3.296875 -5.78125 C 3.296875 -5.101562 3.425781 -4.507812 3.6875 -4 C 3.957031 -3.488281 4.316406 -3.09375 4.765625 -2.8125 C 5.210938 -2.53125 5.710938 -2.390625 6.265625 -2.390625 C 7.015625 -2.390625 7.613281 -2.59375 8.0625 -3 C 8.519531 -3.40625 8.800781 -3.863281 8.90625 -4.375 L 11.546875 -4.375 C 11.441406 -3.65625 11.171875 -2.945312 10.734375 -2.25 C 10.304688 -1.5625 9.710938 -0.984375 8.953125 -0.515625 C 8.203125 -0.0546875 7.304688 0.171875 6.265625 0.171875 Z M 6.265625 0.171875 "/></g></g></g><g fill="#ffffff" fill-opacity="1"><g transform="translate(381.932054, 158.702391)"><g><path d="M 9.078125 0 L 1.15625 0 L 1.15625 -11.546875 L 9.078125 -11.546875 L 9.078125 -9.15625 L 3.796875 -9.15625 L 3.796875 -6.9375 L 8.75 -6.9375 L 8.75 -4.625 L 3.796875 -4.625 L 3.796875 -2.390625 L 9.078125 -2.390625 Z M 9.078125 0 "/></g></g></g></svg>